<svg xmlns="http://www.w3.org/2000/svg" xmlns:xlink="http://www.w3.org/1999/xlink" id="Layer_1" x="0px" y="0px" viewBox="0 0 25.3 28.6" xml:space="preserve">
<g>
	
		<path fill="none" stroke="#FF7717" stroke-width="1" stroke-linecap="round" stroke-linejoin="round" stroke-miterlimit="10" d="   M5.1,13.1c0.3,4.2,3.6,7.5,7.6,7.5c4.2,0,7.6-3.7,7.6-8.2c0-0.1,0-0.2,0-0.3"></path>
	
		<path fill="none" stroke="#FF7717" stroke-width="1" stroke-linecap="round" stroke-linejoin="round" stroke-miterlimit="10" d="   M5.4,11c1.4,0,6.6-3.3,6.6-3.3l0.1,3.3c2.9-1.3,5.3-2.7,5.3-2.7s1,3.5,2.8,4.8"></path>
	
		<path fill="none" stroke="#FF7717" stroke-width="1" stroke-linecap="round" stroke-linejoin="round" stroke-miterlimit="10" d="   M12.7,0.4c-6,0-10.6,4.2-10.6,9.8c0,2.7,0.8,5,0.8,5s-0.4,2-1.7,4.1c1.5,0.9,3.5,0.1,3.5,0.1"></path>
	
		<path fill="none" stroke="#FF7717" stroke-width="1" stroke-linecap="round" stroke-linejoin="round" stroke-miterlimit="10" d="   M12.2,0.4c6,0,10.6,4.2,10.6,9.8c0,2.7-0.8,5-0.8,5s0.4,2,1.7,4.1c-1.5,0.9-3.5,0.1-3.5,0.1"></path>
	
		<path fill="none" stroke="#FF7717" stroke-width="1" stroke-linecap="round" stroke-linejoin="round" stroke-miterlimit="10" d="   M5.1,13.4c0,0-0.5-3.7,2-7.1"></path>
	
		<line fill="none" stroke="#FF7717" stroke-width="1" stroke-linecap="round" stroke-linejoin="round" stroke-miterlimit="10" x1="11.7" y1="16.7" x2="13.2" y2="16.7"></line>
	
		<polyline fill="none" stroke="#FF7717" stroke-width="1" stroke-linecap="round" stroke-linejoin="round" stroke-miterlimit="10" points="   7.1,13 8.5,11.8 10,13  "></polyline>
	
		<polyline fill="none" stroke="#FF7717" stroke-width="1" stroke-linecap="round" stroke-linejoin="round" stroke-miterlimit="10" points="   14.5,13 15.9,11.8 17.3,13  "></polyline>
	
		<path fill="none" stroke="#FF7717" stroke-width="1" stroke-linecap="round" stroke-linejoin="round" stroke-miterlimit="10" d="   M0.5,28.1L0.5,28.1c0-4.4,3.1-6.6,6.9-6.6l5,4.1l5-4.2h0c3.8,0,6.9,2.2,6.9,6.6l0,0"></path>
</g>
</svg>