<svg xmlns="http://www.w3.org/2000/svg" xmlns:xlink="http://www.w3.org/1999/xlink" id="Layer_1" x="0px" y="0px" viewBox="0 0 33.8 33" xml:space="preserve">
<g>
	<g>
		
			<path fill="none" stroke="#FF7717" stroke-width="1.2" stroke-linecap="round" stroke-linejoin="round" stroke-miterlimit="10" d="    M27.3,30.6c-2.5-3.9-7.7-6.7-13.7-6.7S2.5,26.7,0,30.6"></path>
		
			<line fill="none" stroke="#FF7717" stroke-width="1.2" stroke-linecap="round" stroke-linejoin="round" stroke-miterlimit="10" x1="28.5" y1="16.7" x2="28.5" y2="25.5"></line>
		
			<line fill="none" stroke="#FF7717" stroke-width="1.2" stroke-linecap="round" stroke-linejoin="round" stroke-miterlimit="10" x1="23.8" y1="21.1" x2="33.1" y2="21.1"></line>
	</g>
	<g>
		
			<path fill="none" stroke="#FF7717" stroke-width="1.2" stroke-linecap="round" stroke-linejoin="round" stroke-miterlimit="10" d="    M4.6,16.6c-1,0-1.8-0.8-1.8-1.8l0,0c0-0.9,0.6-1.6,1.4-1.8"></path>
		
			<path fill="none" stroke="#FF7717" stroke-width="1.2" stroke-linecap="round" stroke-linejoin="round" stroke-miterlimit="10" d="    M21.9,16.6c1,0,1.8-0.8,1.8-1.8l0,0c0-0.9-0.6-1.6-1.5-1.8"></path>
		
			<path fill="none" stroke="#FF7717" stroke-width="1.2" stroke-linecap="round" stroke-linejoin="round" stroke-miterlimit="10" d="    M22.1,12.3v1.5c0,4.9-4,8.9-8.9,8.9h0c-4.9,0-8.9-4-8.9-8.9v-1.3"></path>
		
			<path fill="none" stroke="#FF7717" stroke-width="1.2" stroke-linecap="round" stroke-linejoin="round" stroke-miterlimit="10" d="    M4.2,13.6c0,0-0.4-1.5-0.7-3.4C3.5,9.6,3.5,8.9,3.5,8.3c0-2.5,2.7-5.5,4.4-5.7c1.5-3.5,10.7-3.9,13.5,1.3c2.6,4.8,0.7,8.4,0.7,8.4    s-5.7-4.8-11.9-4.5C10,11.3,4.2,13.6,4.2,13.6z"></path>
		
			<path fill="none" stroke="#FF7717" stroke-width="1.2" stroke-linecap="round" stroke-linejoin="round" stroke-miterlimit="10" d="    M17.7,13.5c0-0.5-0.4-0.9-0.9-0.9c-0.5,0-0.9,0.4-0.9,0.9"></path>
		
			<path fill="none" stroke="#FF7717" stroke-width="1.2" stroke-linecap="round" stroke-linejoin="round" stroke-miterlimit="10" d="    M10.4,13.5c0-0.5-0.4-0.9-0.9-0.9S8.5,13,8.5,13.5"></path>
	</g>
	<path fill="none" stroke="#FF7717" stroke-width="1.2" stroke-linecap="round" stroke-linejoin="round" stroke-miterlimit="10" d="   M13.2,4.3"></path>
	<path fill="none" stroke="#FF7717" stroke-width="1.2" stroke-linecap="round" stroke-linejoin="round" stroke-miterlimit="10" d="   M4.2,13.2c0-2.4,1-4.6,2.5-6.2"></path>
	
		<line fill="none" stroke="#FF7717" stroke-width="1.2" stroke-linecap="round" stroke-linejoin="round" stroke-miterlimit="10" x1="10.4" y1="17.4" x2="15.6" y2="17.4"></line>
</g>
</svg>